<svg xmlns="http://www.w3.org/2000/svg" viewBox="0 0 425.18 79.49"><defs><style>.cls-1{fill:none;stroke:#000;stroke-miterlimit:10;stroke-width:0.75px;}</style></defs><title>About Me</title><g id="Layer_2" data-name="Layer 2"><g id="Layer_1-2" data-name="Layer 1"><g id="Layer_2-2" data-name="Layer 2"><g id="Layer_1-2-2" data-name="Layer 1-2"><g id="Layer_2-2-2" data-name="Layer 2-2"><path class="cls-1" d="M.52,77.58,25.43,3.7H37.54l24.9,73.88H52.07L45.38,56.94H17.14L10.45,77.58Zm42.13-29L31.24,13.72,19.87,48.55Z"/><path class="cls-1" d="M115.19,49q0,13.59-6.6,21.88T92.07,79.12A23.39,23.39,0,0,1,84.35,78,33.66,33.66,0,0,1,78,75l-.59,2.58H68.7V.38H78V28a35.19,35.19,0,0,1,7.65-5.26A20.32,20.32,0,0,1,95,20.62a17.23,17.23,0,0,1,14.79,7.52Q115.18,35.66,115.19,49Zm-9.63.74q0-9.91-3-15T92.81,29.5a18.36,18.36,0,0,0-7.71,1.79A29.91,29.91,0,0,0,78,35.8V67.56A34.08,34.08,0,0,0,84.28,70a23.5,23.5,0,0,0,6,.72q7.14,0,11.21-5.06T105.56,49.69Z"/><path class="cls-1" d="M170.46,49.89q0,14-6.75,21.61t-18,7.62q-11.56,0-18.18-7.87t-6.63-21.36q0-13.89,6.83-21.58t18-7.69q11.22,0,18,7.66T170.46,49.89Zm-9.62,0q0-10.76-3.92-16t-11.17-5.23q-7.29,0-11.24,5.23t-3.94,16q0,10.43,3.94,15.81t11.24,5.38q7.2,0,11.14-5.28T160.84,49.89Z"/><path class="cls-1" d="M223.21,77.58h-9.33V71.43a41,41,0,0,1-8.19,5.73,18.92,18.92,0,0,1-8.63,2,19.54,19.54,0,0,1-6.83-1.19,14.4,14.4,0,0,1-5.58-3.77,17.79,17.79,0,0,1-3.69-6.5,30.11,30.11,0,0,1-1.32-9.53v-36H189V53.71a69.65,69.65,0,0,0,.32,7.32,14.24,14.24,0,0,0,1.47,5.09,7.13,7.13,0,0,0,3.1,3.12,12.6,12.6,0,0,0,5.63,1,16.38,16.38,0,0,0,7.29-1.94,33.52,33.52,0,0,0,7.1-4.76V22.16h9.33Z"/><path class="cls-1" d="M253.47,78.67q-7.64,0-11.91-4.34T237.3,60.61V29.9H231V22.16h6.3V6.23h9.33V22.16h17.16V29.9H246.63V56.24c0,2.82.05,5,.14,6.5A10.89,10.89,0,0,0,247.92,67a5.45,5.45,0,0,0,2.72,2.61,12.44,12.44,0,0,0,5.12.86,14.51,14.51,0,0,0,4.41-.67,25.41,25.41,0,0,0,3.08-1.11h.54v8.38a44,44,0,0,1-5.33,1.17A32.69,32.69,0,0,1,253.47,78.67Z"/><path class="cls-1" d="M366.5,77.58h-9.82V13.92L337.43,57.24h-6l-19.1-43.32V77.58h-9.18V3.7h13.4L335,44.83,352.86,3.7H366.5Z"/><path class="cls-1" d="M404.81,78.87q-13.26,0-20.57-7.47t-7.32-21.21q0-13.55,7.1-21.56t18.55-8a25.93,25.93,0,0,1,9.13,1.49,18.15,18.15,0,0,1,6.95,4.66,21.4,21.4,0,0,1,4.56,7.77,34.57,34.57,0,0,1,1.59,11.24v5.06H386.4q0,9.67,4.86,14.78t13.45,5.11a26.43,26.43,0,0,0,6-.69,28.23,28.23,0,0,0,5.33-1.79A36.85,36.85,0,0,0,420.34,66a25.74,25.74,0,0,0,2.87-2h.55V74.21l-4.07,1.61a45.16,45.16,0,0,1-4.36,1.51q-2.73.75-4.94,1.14A31.82,31.82,0,0,1,404.81,78.87Zm10.91-35.18a25.63,25.63,0,0,0-.89-6.5,13.36,13.36,0,0,0-2.28-4.61,10.44,10.44,0,0,0-4.2-3.18,18.65,18.65,0,0,0-12.65,0A14.93,14.93,0,0,0,391,32.68a15.26,15.26,0,0,0-3.17,4.83,20.82,20.82,0,0,0-1.39,6.18Z"/></g></g></g></g></g></svg>