<svg xmlns="http://www.w3.org/2000/svg" viewBox="0 0 170.94 32.67"><defs><style>.cls-1{fill:#181818;} .newer {
  fill: #181818;
  animation: toggle 4s infinite alternate;
}
@keyframes toggle {
  50% {
    transform: rotate(-3deg);
    <!-- transform: matrix(-1, 0, 0, 1, 0, 0);  -->
  }
}</style></defs><title>Jaredbookr_nav</title><g id="Layer_2" data-name="Layer 2"><g id="Layer_1-2" data-name="Layer 1"><g id="Layer_2-2" data-name="Layer 2"><g id="Layer_1-2-2" data-name="Layer 1-2"><path class="cls-1" d="M15.09,2.67h3.56V23.33a7.59,7.59,0,0,1-2.28,6.75,9.66,9.66,0,0,1-6.89,2.4,10,10,0,0,1-7-2.29A8.07,8.07,0,0,1,0,24.05H4a5.26,5.26,0,0,0,1.38,3.77,5.48,5.48,0,0,0,4.09,1.45,5.39,5.39,0,0,0,4-1.55,6.78,6.78,0,0,0,1.66-4.33Z"/><path class="cls-1" d="M34.24,32.06a7.43,7.43,0,0,1-.54-2.31,8.49,8.49,0,0,1-6.35,2.73,7.88,7.88,0,0,1-5.41-1.87,6,6,0,0,1-2.11-4.73,6.3,6.3,0,0,1,2.67-5.41C24.28,19.18,30,18.7,30,18.7h3.84V16.89a4.57,4.57,0,0,0-1.13-3.24,4.33,4.33,0,0,0-3.36-1.21,5,5,0,0,0-3.23,1.05A3.13,3.13,0,0,0,24.77,16H21.15a5.66,5.66,0,0,1,1.13-3.29,7.86,7.86,0,0,1,3-2.5,9.6,9.6,0,0,1,4.2-.9,8,8,0,0,1,5.71,1.95,7.41,7.41,0,0,1,2.13,5.44V26.88a25.73,25.73,0,0,0,.89,4.89v.29Zm-6.19-2.77a6.78,6.78,0,0,0,3.41-.89A5.64,5.64,0,0,0,33.79,26V21.37h-3q-7,0-7,4.11A3.54,3.54,0,0,0,25,28.29,4.61,4.61,0,0,0,28.05,29.29Z"/><path class="cls-1" d="M49.79,13.23a11.11,11.11,0,0,0-1.91-.16,5.13,5.13,0,0,0-5.18,3.2V32.06H39.13V9.8h3.46l.06,2.58a6.08,6.08,0,0,1,5.45-3,4,4,0,0,1,1.72.28Z"/><path class="cls-1" d="M57.25,32.67a9.61,9.61,0,0,1-7.29-3,11.17,11.17,0,0,1-2.81-8v-.62a13.32,13.32,0,0,1,1.26-5.93,9.79,9.79,0,0,1,3.51-4.08A8.67,8.67,0,0,1,56.8,9.6a8.19,8.19,0,0,1,6.67,2.87c1.59,1.9,2.38,4.65,2.38,8.2v1.59H50.91a8,8,0,0,0,1.9,5.35,6,6,0,0,0,4.64,2,6.6,6.6,0,0,0,3.37-.82,8.62,8.62,0,0,0,2.43-2.19l2.3,1.78A9.2,9.2,0,0,1,57.25,32.67ZM57,12.31A5,5,0,0,0,53.08,14a8.13,8.13,0,0,0-1.93,4.71H62.29v-.29a7.43,7.43,0,0,0-1.56-4.51A4.81,4.81,0,0,0,57,12.33Z"/><path class="cls-1" d="M66.11,20.58a14,14,0,0,1,2.27-8.36,7.3,7.3,0,0,1,10.83-1.34,7.48,7.48,0,0,1,.89.89V0h3.56V32.06H80.39l-.17-2.42a7.33,7.33,0,0,1-11.82-.38,14.19,14.19,0,0,1-2.27-8.38Zm2.75.61a9.94,9.94,0,0,0,1.57,5.95,5.07,5.07,0,0,0,4.33,2.13A5.55,5.55,0,0,0,80.1,26V15.76a5.61,5.61,0,0,0-5.25-3.16,5.11,5.11,0,0,0-4.38,2.18C69.4,16.22,68.87,18.36,68.86,21.19Z"/><path class="cls-1" d="M104.15,21a13.44,13.44,0,0,1-2.37,8.31,7.5,7.5,0,0,1-6.33,3.12,7.8,7.8,0,0,1-6.52-3l-.19,2.61h-3.3V0H89V12a7.72,7.72,0,0,1,6.41-2.9,7.56,7.56,0,0,1,6.41,3.11c1.54,2.1,2.32,5,2.32,8.56Zm-3.87-.54a10.22,10.22,0,0,0-1.52-6,5,5,0,0,0-4.33-2.13A5.61,5.61,0,0,0,89,15.84V25.5A5.76,5.76,0,0,0,94.47,29a5,5,0,0,0,4.29-2.13q1.55-2.11,1.54-6.39Z"/><path class="cls-1" d="M103.43,20.73a12.92,12.92,0,0,1,1.29-5.89,9.56,9.56,0,0,1,3.56-4.05,9.79,9.79,0,0,1,5.24-1.42,9.45,9.45,0,0,1,7.38,3.15,12.19,12.19,0,0,1,2.84,8.38v.27A13.38,13.38,0,0,1,122.49,27a9.53,9.53,0,0,1-3.56,4,9.86,9.86,0,0,1-5.34,1.44,9.41,9.41,0,0,1-7.36-3.15A12.06,12.06,0,0,1,103.42,21Zm3.78.46a9.57,9.57,0,0,0,1.72,5.95,5.85,5.85,0,0,0,8.19,1,5.69,5.69,0,0,0,1-1,10.43,10.43,0,0,0,1.71-6.38,9.52,9.52,0,0,0-1.78-6,5.79,5.79,0,0,0-9.19,0Q107.2,17,107.21,21.19Z"/><path class="cls-1" d="M122.85,20.73a13.13,13.13,0,0,1,1.3-5.94,9.59,9.59,0,0,1,3.59-4.08A9.87,9.87,0,0,1,133,9.27a9.52,9.52,0,0,1,7.44,3.18,12.28,12.28,0,0,1,2.86,8.45v.27a13.56,13.56,0,0,1-1.25,5.89,9.52,9.52,0,0,1-3.6,4.07,10,10,0,0,1-5.38,1.46,9.49,9.49,0,0,1-7.41-3.18A12.15,12.15,0,0,1,122.85,21Zm3.81.46a9.5,9.5,0,0,0,1.71,5.95,5.85,5.85,0,0,0,8.19,1,5.69,5.69,0,0,0,1-1,10.43,10.43,0,0,0,1.71-6.38,9.52,9.52,0,0,0-1.74-6,5.79,5.79,0,0,0-9.19,0Q126.66,17,126.66,21.19Z"/><path class="cls-1" d="M149.29,21.78l-2.39,2.49v7.79h-3.57V0h3.57V19.57l2-2.44,6.94-7.33h4.63l-8.66,9.32,9.66,12.94h-4.44Z"/><path class="cls-1 newer" d="M160.25,9.67A4.25,4.25,0,0,1,162,9.39a6.09,6.09,0,0,1,5.46,3l.07-2.57h3.43V32.06h-3.56V16.26a5.16,5.16,0,0,0-5.21-3.19,10.36,10.36,0,0,0-1.92.15Z"/></g></g></g></g></svg>
