<svg xmlns="http://www.w3.org/2000/svg" viewBox="0 0 368.53 670.42"><defs><style><style>.cls-1, .cls-2{fill:none;
  stroke-dasharray: 1000;
  stroke-dashoffset: 600;
  stroke:url(#logo-gradient);
  animation: dash 5s linear forwards;
  stroke-miterlimit:0;
   }
 @keyframes dash {
  to {
    stroke-dashoffset: 0;
  }
}</style> </style><linearGradient id="logo-gradient" x1="20%" y1="50%" x2="80%" y2="50%" >

<stop offset="0%" stop-color="#FF001C">
    <animate attributeName="stop-color" values="#FF001C; #060827; #FF001C" dur="6s" repeatCount="indefinite"></animate>
</stop>

<stop offset="100%" stop-color="#FF001C">
    <animate attributeName="stop-color" values="#060827; #FF001C; #060827" dur="4s" repeatCount="indefinite"></animate>
</stop>

        </linearGradient>
        </defs><title>Asset 10</title><g id="Layer_2" data-name="Layer 2"><g id="Layer_1-2" data-name="Layer 1"><g class="cls-1"><path class="cls-2" d="M150.58,216.63c-4.07.37-7.86-.06-9.35,5.7-1.16,4.47-7.12,6.23-12.77,4.71-4.27-1.15-9.26-.66-12.43-5.1-.78-1.1-3.22-.69-4.68.76-3.84,3.8-5.85,5-9.21,5.35-2.38.28-4.77.5-7.16.62s-4.6.37-6,2.87c-2.47,4.33-6.56,4.67-10.69,3.19-3.45-1.24-5.9-.94-8.56,1.83-2.29,2.37-5.22,5.17-8.17,5.58-4,.56-5.32,3.29-7.6,5.43a4.78,4.78,0,0,0-1.39,4.81c.46,2.7.21,5-1.92,7.28-3.53,3.76-4.5,9.1-6.18,13.69a16.09,16.09,0,0,0,2.14,15c.57.77.65,2.9.1,3.36-4.13,3.43-2.29,6.62-.8,10.7,2.22,6.09-.6,12.52-.63,18.84,0,.62-1.37.87-.26,2,3.21,3.2,0,5.18-2.12,5.49-2.9.42-5.24,2-7.42,2.8-1.36-.59-1.45-1-.86-1.49,2-1.65,4.25-3,5.75-5C42.41,322.2,38.08,321,38,318c0-3.85,1.67-7.3,1.25-11.07-.6-5.35-1-10.73-1.41-16.11-.14-2.06-1.59-4.42,2.31-5.49,1.46-.39.9-4.28-.35-6.32-2.26-3.74-1.93-7.36-1.13-11.55,1.06-5.57.7-11.41,1-17.12.17-2.83-.76-5.45.41-8.59,1-2.68-1.55-6.29-2.3-9.56-.63-2.8-1.87-6.48-6.27-7.12-3.09-.44-4.25-4.89-8.09-4.74-.89,0-1.33-1.55-.94-2.15a7.06,7.06,0,0,0,1.37-4.84c-.75-6.85-.67-13.85-2.08-20.55-.86-4.08-2.83-7.48-1-12.07,1.39-3.56-2.1-8.07,1-11.87-1.45-4.94-.22-9.91.7-14.6,1.78-9,.3-18.67,4.67-27.24-.67-11,4.17-20.73,7.77-30.64A92.86,92.86,0,0,1,55.08,64.49c5.53-5.87,11.24-11.95,17.61-16.59C80.48,42.22,86.87,34,97,31.75c5.84-5.54,13.68-7.49,20.72-10.49,6.88-2.94,13.8-5.9,20.72-8.81.25-.1.42-.59.61-.59,10.4.39,18.5-7.49,28.65-7.94C174.94-.39,183.22,1.51,191,.1c3.73-.67,7.2,2.24,11.06.84S209.23,2.19,213.08,2c3.39-.16,6.68,2.24,10.31,3,4.82,1,8.92,4.43,13.63,6.35,8.8,3.59,15.95,10.1,24.07,14.91,12.38,7.33,22.84,17.09,33.22,26.71,11.87,11,23.3,22.87,31.82,36.72,4,6.46,8.26,13.13,10.22,20.91s3.78,15.57,5.92,23.19c2.68,9.58,2.13,19.27,4,28.75.92,4.79-1.13,10.23,3,14.34-2.48,5.37.84,11.32-.93,16.24s.81,9.54-1.58,14.36c-2,4.08-1.93,9.23-2.58,13.94a12.87,12.87,0,0,1-.86,4.11c-2.08,4.51-4.15,9.14-3.17,15.2-3.54-1.66-7.19-1.84-4.5-6.25,1.06-1.75.21-3.48.1-5.18-.41-6-.58-12-1.61-17.9-2.07-11.73,0-23.52-1.08-35.26-.29-3-.73-5.93-2.71-7.95-2.17-2.2-2.08-4.7-2.32-7.25-.62-6.57-1.27-13.13-1.67-19.71-.16-2.5-.56-4.85.58-7.66s1.18-7.08-2.67-9.4c-2-1.2-1.93-2.64-.41-4.36a2.88,2.88,0,0,0,.3-2.45c-2.86-7.83-2.53-17-9.73-23-1.12-4.51-6.78-5.41-7.91-9.93a1,1,0,0,0-.67-.57c-8.16-2.27-12.38-10.57-20-13.32-4.83-1.74-9.88-2.64-13.6-6.6-1-1-2.25-.19-3.39-.23-.88,0-2.16.47-2.58,0-3-3-7.58-3.4-10.27-5.7-4.27-3.66-9.48-3.73-14-5.9-4.22-2-9.46-2.18-14.42-1.14a6.93,6.93,0,0,1-5.83-1c-1.33-.91-4,.48-5.53-1.58-7.65,1.87-14.19-.23-20.2-5.17a3.34,3.34,0,0,0-4.63,1.23c-1.51,2.93-4.22,2.71-6.84,3.14-5.4.87-11,.09-16.27,2.88-2.08,1.1-5.94-.68-8.78-1.74a3.55,3.55,0,0,0-3.78.43c-6.23,3.75-16.28,5.23-23.31,3.47-2.63-.66-4.44-.29-6,1.92a29.52,29.52,0,0,1-4.64,5.48c-3.65,3-6.72,7.22-12.41,6.76-3.4-.28-6.18,1.57-8.1,4.08-2.33,3.06-5,4.83-8.89,4.62-3.26-.18-5.58.89-6.09,4.7-.16,1.26-1.58,2.44-2.58,3.5-1.5,1.58-2.59,3.16-2,5.51a3.71,3.71,0,0,1-1,4c-2.88,2.66-2.67,5.71-.46,8.59,1.79,2.33,1.26,4.11-.35,6.25-3.39,4.52-3.3,4.59-2.6,11.38,2.26,1.19,4.59,0,6.9,0,1,0,1.87.22,2,1.12s-.12,2-.64,2.32c-3.64,2.16-5.11,5.08-3.69,9.19,1,2.8-1.06,4.33-2.46,6.2-3.41,4.55-3,6.34,1.91,8.55,8,3.59,7.7,3.61,8.42,11.81.27,3-2.88,5.32-.67,9.17l18.92-1.65c2.38-.21,4.77-.39,7.16-.63,2.06-.22,3.59,1.26,5.65,1.54,5.58.76,11.13,1.58,16.73,2.22a83.22,83.22,0,0,0,17.36-.06c2.22-.21,3,1.48,4.42,2.41-1,1.53-2.68,1-4.07,1.2-4.3.5-4.15.59-7.69,4.79-3.38,4-6.84,6.4-13.24,5-5.44-1.19-11.14-1.25-16.13-4.15a4.27,4.27,0,0,0-2.51-.36c-9.14-.17-17.23,4.27-26,5.9a2.83,2.83,0,0,0-1.36,1c-4.32,5-7.61,10.31-5.76,17.32.83,3.14,4.17,4,6,6.41.56,2.38-1.85,3.85-2.34,6.12-.36,1.64.34,1.88,1,2.51.51.45.94,1.41,2,.26,2.06-2.35,5.55-2.61,7.62-5.14,3.4-4.16,7.9-5.37,14-4.32l-6.84,6.28c3.88.53,6.17.72,8.65-1,3.33-2.24,7.49-1.07,11.24-1.76,7.5-1.4,14.78.26,22.13,1.53A5.61,5.61,0,0,1,150.58,216.63Zm-23.53,1.18c2.15,1.61,5.1-.39,7.2,1.91.89,1,2.32-1.3,3.16-2.41s-.68-1.2-1.08-1.77c-.91-1.3-1.55-1-2.57.16C132.08,217.55,129.09,215.65,127.05,217.81Z"/><path class="cls-2" d="M176.87,471.77l8.89-10.6c1.36.93.3,2.68,1.66,4.95.69.82,2.68-.06,4.16-.47,2.91-.82,4.81,1.72,7.38,1.66,2.37,5.42,4.9,3.31,7.45.16.19-.23.4-.67.58-.66,6,.37,8.77-4.92,12.8-7.74,2.61-1.83,3,.17,4,1,1.86,1.56-1.38,5.62,2.84,6.28,3,.46,3.74-2.43,5.6-3.64,1.34-.87,3.41-.59,5.13-.92,1.42-.27,1.62-2.7,3.65-2,2.42.74,1,3,1.5,4.5.35,1.11.15,2.4,1.9,2.33,1.6-.07,1.75-1,1.83-2.34,0-.75.92-1.42,1.26-2.2,2.85-6.5,3.88-6.81,9.14-2.82,1.13.86,1.91,2.32,3.46,2.39,2.49-.2,1.57-1.95,1.86-3.27.86-3.95,3.26-6.63,6.91-6.41,4.92.31,8.78-2.93,13.44-3.1,2.18-.08,2.74-2.05,3.91-3.27,1.45-1.51,2.74-3.18,4.06-4.8,1.16-1.42,2.3-2.93,4.25-1.15,1.61,1.47,3.39.42,5.09.45,2.12.05,2.85-1.95,1.75-2.79-2.33-1.79-1.06-2.81.19-3.95,1.48-1.35,1.65.92,2.63,1.12s1.32,2.23,2.61.52c.8-1.07,2.2-1.78.21-3.31-1.18-.91-1.22-3.17.95-3,3.4.26,4.13-2.8,6.41-4.23,2.65,4.66-.94,8.55-2.49,11.83-2.14,4.52-6.08,8.78-7.05,13.46-1.1,5.35.63,11.27,1.12,16.94l1.15,13.17L301,475c1.33-4.13,3.94-7.5,2.89-11.76-.4-1.65-2-2.51-3.11-1.3-6.34,7.09-15,11.64-21,19-1.1,1.34-2,2.6-4.2,2.79-5.75.5-10.48,4.12-15.07,6.9-10.56,6.39-14.09,8.74-24.33,10.85a6.6,6.6,0,0,0-3.08,1.33c-3.76,3.05-8.4,4.13-13.34,3.81-1.35-.09-3.11-.41-4,1.19-1.5,2.7-3.92,3.33-6.72,3.3-1.84,0-3.58.23-4.51,2.14-1.11,2.31-3.27,2.12-5.33,2.37-1.4.18-3-.4-4.15,1-5.23,6.32-12.65,3.17-19.07,4.23-1.94.32-7.43.55-10.55,1.21a7.83,7.83,0,0,1-4.27-.15,60.43,60.43,0,0,0-32.28-1.67c-.81,2.09-.85,4.94.28,5.94,3.51,3.13.91,3.65-1.24,5.36-2.94,2.34-2.65,4.53.19,7.3.86.84,1.82,1.56,2.75,2.32a3.75,3.75,0,0,1,.81,5.44c-1.08,1.68-3.42,3-2.27,5.33s2.06,4.54,4,6.37c5.35,5.1,11.12,8.52,18.89,6.55,1.05-.26,2.35-.72,3.64.76-1.34,7.48-6.58,11.78-13,15.35-1.51.84-1.79-.21-2.66-.29-7-.72-13.82-3.17-21.14-2.4-2,.21-4.82-.94-7.23-1.56-5.5-1.43-12.9-.57-16.61,2.14-2,1.46-4.42,2.51-1.64,6.13a9.75,9.75,0,0,1,.59,10c-1.15,2.12-.22,4.3-1.63,6.55-2.21,3.54,2.58,6.73,2.26,10.53-.27,3.28-2.9,6.72-.19,9.76,1.44,1.62,1.31,3.21,1.46,4.88q1.92,21,3.68,42.09c0,.5-.37,1-.57,1.55-2.45-1-3.15-2.84-3.41-5.38-1-10.21-3.77-20.13-4.71-30.42-.63-6.9-4.37-13.43-5.28-20.6-.41-3.19-4.54-4.31-6.53-6.56-4.73,3.56-6.1,9.34-9.78,13.58a9.07,9.07,0,0,0-2.05,8c.92,3.78-2.41,7.22-.93,11.08,0,.14-.8.77-1.3.94a1.59,1.59,0,0,1-2.16-.88,18.24,18.24,0,0,1-.37-3.57C61.79,627,60,617.44,60.38,608c.49-10.77-.86-21.65,1.87-32.42a39.62,39.62,0,0,0,1-11.81c-.19-3.05,1.69-5.58,1.19-8.37a11.05,11.05,0,0,1,2.07-8.05c1.84-2.85-1.46-6.62,2.27-9,3.25-2-1-6.48,2.39-8.84.39-.27-.38-1.85,0-2.55,1.39-2.91-4.14-4-1.75-7,1.85-2.25.33-4.56.46-6.82.08-1.49-.38-3-.32-4.48.09-2.41-5.63-2-2.6-6.22,1.19-1.67-.24-5.21-.47-7.9-2.37-27.16-4.95-54.31-7-81.5-.52-7.08-4.37-13.39-3.78-20.59.19-2.43-1.18-5,2.73-6.19,1.57-.49,2.1-3.84,3.44-5.64,1.19-1.59,2.92-2.42,3.63.45.26,1.05,1.45,1.4,1.45,2,.06,6.28,5.26,9.8,7.9,14.65A28.6,28.6,0,0,0,89.73,410.5c3.87,1.55,7.42,3.81,11.54,4.86,1.2.31,3.26-.41,3.9,2.45.47,2.09,3.07,4,6,4.52,1.63.31,3.47,1.41,3.43,3.44-.06,3.32,2.28,5,3.85,7.42,4.68,7.2,11.36,11.87,18.14,16.59,5.65-.93,8.27,6.41,14.05,5.15,1.11,4.72,4.72,3.17,7.63,2.86,3.31-.35,4.62,2.93,7.6,3.67s5.21,4.38,8.74,5.35C176.15,467.24,176.16,469.05,176.87,471.77ZM74.35,564.16c-.29-3.28-.44-5.94-.78-8.58-.19-1.46,1.47-2,1.47-3,0-1.34.65-3.3-.9-4-1.15-.53-2.74-.1-4.82-.1a32.94,32.94,0,0,1-.54,12C67.87,564.22,68.87,564.65,74.35,564.16Zm-4,36.37c-.36-.9-.81-1.41-1.91-1.3-1.66.16-1.83,1.18-1.59,2.4a1.5,1.5,0,0,0,1.86,1.26C70.34,602.74,70.4,601.71,70.32,600.53Z"/><path class="cls-2" d="M145.43,398.2c6.28-2,11.16-.94,15.32,2.33,2.55,2,4.93,3.18,8,2.21,4.39-1.37,8.41,1.43,12.84.85,3.89-.5,8.1-2.31,11.9.63,5.22-1.72,10.41.15,15.47.68,8.85.92,17.51,0,26.23-.74,1-.08,1.81.12,2.12,1a2.25,2.25,0,0,1-.54,2.42c-1,1.06-1.74,2.58-3.54,2.16-3.79-.89-6.75,1.65-9.73,2.91-5.55,2.34-10.81,3.43-16.6,1.6-1.67-.52-3.14,0-4.84.82-3.93,1.81-8.16,3.4-12.18-.16a3.74,3.74,0,0,0-2.22-1.11c-4.32.18-8.86,1.73-12.28-2.56-.21-.26-1.22.27-1.73.08-2.62-1-4.47,2.93-7.55.83a8.41,8.41,0,0,0-7.36-1.31,2.16,2.16,0,0,1-2.34-.84C152.94,406.29,149.48,402.55,145.43,398.2Z"/><path class="cls-2" d="M256,184.48l-.75-8.64c.48-.34.94-.93,1.4-.94,4.29-.07,8.63-1.92,12.89.56a4.22,4.22,0,0,0,3.5-.29c7.32-4.16,15.53-2.67,23.32-3.61,3.49-.43,8.07-.25,10.6,1.68,4.44,3.4,10.71,4.58,13.24,10.59a56.62,56.62,0,0,0,6,10,5.45,5.45,0,0,1,1.31,3.08c0,.87.31,1.91-.62,2.38a2.1,2.1,0,0,1-2.45-.16c-3-2.53-6.13-4.84-8.9-7.56-4.41-4.36-11.38-4.44-15.32-9.47-5,.23-10.39-.4-14.8,1.82a16.11,16.11,0,0,1-7.51,1.59c-2.86,0-4.28,2.81-7.16,2.72-1.93-.07-3.49-.18-4.74-1.65C263.46,183.56,260.3,182.58,256,184.48Z"/><path class="cls-2" d="M146,357.85a13.84,13.84,0,0,0-2,10.9c.8,4.64-1.86,9-.84,13.76.45,2.08-3.43,3.4-5.28,1.92-2.25-1.81-5.41-3.54-3.41-7.07,1.63-2.87.76-4.48-1-6.86-3.33-4.38-3.13-4.9-6.94-5.49a20.09,20.09,0,0,1-9.12-4.32c-1.85-1.4-1.12-3.19-1.85-5.48,3.6,0,6.42-1.1,10.22.39,4.25,1.65,8.52-2.32,12.94-3.27.69-.14,1.06-1.23,2.13-1.3,9.66-.65,18.82-4.67,28.64-4.28a21.22,21.22,0,0,1,5.87.71c3.66,1.13,7.64,2.42,11.77,1.41,1.94-.47,2.91,1.21,4.59,3.48-5.2-.72-9.54,2.15-14.23-.75-1.2-.74-4.18-.44-5.1.55-3.21,3.43-5.37,1.69-8.31-.37-3.14-2.2-5.31,2.24-8.34,2.12C153.61,358.5,149.16,357.14,146,357.85Z"/><path class="cls-2" d="M322.05,236.93c-1.07,1-2,2.65-3.18,2.78-5.69.62-11.5,2.36-16.82-1.92-1.54-1.24-3-2-4-4-1.75-3.44-4.27-6.66-9.29-7.21a16.74,16.74,0,0,0-2.67,3.65c-3,7.18-8.74,7.06-14.83,5.43a15.65,15.65,0,0,0-3.35-.41c-2.85-.17-4.15-1.81-4.26-4.57,0-1.2-.16-2.39-.32-3.58-.75-5.62-2.77-6.5-7.86-3.38-3.31,2-6.5,4.29-9.89,6.18-.81.45-2.41.91-3.32-.22-1.22-1.53,0-2.64.9-3.79,1.91-2.33,6.55-.84,7.25-5.29.08-.49,3.94-.21,6-.62,5.72-1.18,11.92.64,17.28-2.75,1.57-1,2,1.21,3.63,1.09,4.51-.35,8.52,2.36,13.13,2.61a11.06,11.06,0,0,1,6.73,3.36c3.47,3.68,7.82,5.3,12.89,6.06C315.9,231.22,315.82,231.7,322.05,236.93Zm-42.51-10.34c-.14-1.67.21-3.41-.43-3.92-2.28-1.83-5.1-.71-7.5-.21-1.81.38-3.39,2.16-2.71,5.06Z"/><path class="cls-2" d="M152.27,299.41c10.42.28,20-4.45,30.39-4.51,4,0,7.08.27,10.49,2.9,5.22,4,11.23,7.32,17.83,2,8.87-.92,17.94-3,25.75,3.4,1.46,1.2,3.35.81,4.59,2.07.79.8,2.09,1.2,2,2.69a4.07,4.07,0,0,1-2.41,3.44c-3.63,1-8.66,1.79-10.6-1-2.08-2.94-5-2-6.72-3.62a8.48,8.48,0,0,0-8.1-2.07,41.29,41.29,0,0,1-4.46.42c-4.46.39-9,.28-13.35,1.3-4.83,1.13-7.69-3-12.07-3.45-4.71-.48-9-.88-13.29,1.28a18,18,0,0,1-11.22,1.3C157.89,305,153.86,303.52,152.27,299.41Z"/><path class="cls-2" d="M174.42,238.74c-1.17-5,.47-7.79,2.16-10.89s-3.44-5.3-2.4-8.79c-1.26-1.35-2.81-.67-4.18-.49-4,.52-7.21-.85-10.27-3.27-2.45-1.94-4.19-5.1-9.61-4.16,4.59-2.91,7.36-2.39,10.36-.87a87.41,87.41,0,0,0,9,3.4c1.47-8.81-5.43-12.16-10.13-17.35,5.49-1.8,9.55,1.43,13.46,3.58,4.3,2.35,7.56,6.27,10.49,10.28a6.38,6.38,0,0,1,.53,7.24c-.68,1.25-2.32,1.87-2.3,3.61,0,2.91,1.56,6.08.11,8.67C180,232.76,177.28,235.27,174.42,238.74Z"/><path class="cls-2" d="M270,365.33c.14,1.59.23,2.75.34,3.91.3,3.24-1.12,4.95-4.4,5.2-4.13.31-8.26.71-12.41,1.07-.19-2.56-2.78-3.54-3.12-6-.52-3.76-4.59.19-5.32-1.8-.93-2.54-3-3.7-4.77-4.88-1.22-.79-3.37-.09-5.1-.15-2.36-.07-1.56-2-1.83-3.28-.33-1.54.64-1.85,1.94-2.18,2-.52,3.28.67,4.76,1.45,6.67,3.54,14,5,21.25,6.71C264.05,366,266.56,364.93,270,365.33Z"/><path class="cls-2" d="M34.26,249.76c.17,2.68.74,5.17-1,7.67-.62.89-.6,2.09-2,2.1-4.19,0-7.92,1.1-10.9,4.29a2.41,2.41,0,0,1-2.33,0,1.81,1.81,0,0,1,0-3c2.53-2.23,3.49-6.17,8-6.41,1.84-.1,3.21-2.2,3-4.68-.14-1.38-1-2.9.25-4.25.61-.66,1.06-1.74,1.77-1.93.51-.14,1.32.9,2,1.39C34.77,246.21,33.77,248.24,34.26,249.76Z"/><path class="cls-2" d="M1,235.41A15.35,15.35,0,0,1,1.65,223c1.28-2.7,5.52-3.74,8.29-2.29,2,1.06,3.28,4.29,1.79,5.88-2.46,2.62-3.65,7.05-8.59,6.65C2.6,233.15,2,234.39,1,235.41Z"/><path class="cls-2" d="M235.24,221.86c2.82-4.83,7.21-5.44,10.33-7.7S254,213,259.4,212.53c-4.08,3.26-6.78,6.61-10.24,7.86C245.19,221.83,240.54,221.4,235.24,221.86Z"/><path class="cls-2" d="M368.53,246.94,363.19,252c.85-.23.64-.11.44-.13-1.66-.16-7.14-7.74-6.7-9.24.8-2.74,5-4,7.11-1.94C365.57,242.25,366.63,244.26,368.53,246.94Z"/><path class="cls-2" d="M30.64,302.7c-4.35-3.17-7.82-7-7.11-13.07,3.14-2,6.57-.53,6.82,1.61C30.8,295,36.71,298.81,30.64,302.7Z"/><path class="cls-2" d="M149.37,216.09c9.11.82,14.14,6.49,20.2,10.53-2.82,2.65-5-.12-7.33-.05-3.13.1-4.42-1.19-5.92-3.71C154.91,220.5,152.3,218.86,149.37,216.09Z"/><path class="cls-2" d="M235.43,205.44c2.53,3.65-.11,6.06-.76,8.59-.53,2-3.3,2.88-1.09,6.17,1.62,2.41-3.58,1.4-4.12,4.13C228,215.77,228.79,213.36,235.43,205.44Z"/><path class="cls-2" d="M101.75,340.47c-.11-1.74-.69-3.55,1.16-4.86,1.53-1.1,2.29-4.54,4.62-2.89,2.11,1.51,1.43,4.21-.63,6a5.78,5.78,0,0,0-1.63,3.85c-.16,1.08-1.45.91-2.27.84-.4,0-.86-.72-1.06-1.21A6.48,6.48,0,0,1,101.75,340.47Z"/><path class="cls-2" d="M3.55,289.68c2.6,3.86,4.53,6.35,6,9.08.88,1.58-.67,2.9-1.77,3.68-1.71,1.2-3-1.16-3.13-1.69C4.07,297.61,4,294.37,3.55,289.68Z"/><path class="cls-2" d="M33.76,307.79c.56,2.68.45,4-1.65,4-1.28,0-2.94.95-3.4-1.34-.4-2,1.4-6.06,2.41-5.45A11.13,11.13,0,0,1,33.76,307.79Z"/><path class="cls-2" d="M2.16,250.92,1,237.21C3.54,241.52,2.94,246.23,2.16,250.92Z"/><path class="cls-2" d="M15.35,282.58c2.88-.67,1.4,2.6,3,3.28,1.74.77.42,1.66-.19,2.43-.36.45-.74.88-1.11,1.33-1-1-2.41-1.75-2.88-2.92s-.93-2.8.39-4C14.71,282.57,15.07,282.62,15.35,282.58Z"/><path class="cls-2" d="M310.15,494.41c-2.45-2.4-4.24-3.06-4.11-5.25.07-1.13-.41-2.41,1.14-2.78,2-.47,2.49.69,2.5,2.42C309.7,490.19,309.9,491.57,310.15,494.41Z"/><path class="cls-2" d="M220.14,355.52c1.12-.49,1.39-.72,1.61-.68,1.44.25,3.61-1.48,4.1,1.4a1.81,1.81,0,0,1-.44,1.5c-2,1.42-3-.42-4.34-1.37C220.85,356.2,220.66,356,220.14,355.52Z"/><path class="cls-2" d="M152.43,300.65c-1.45-1.36-1.83-1.79-2.27-2.13-1.15-.86-2.32-1.83-1.53-3.38a2.41,2.41,0,0,1,2.11-.85c1.85.48,1.17,2.25,1.43,3.52C152.28,298.36,152.28,298.94,152.43,300.65Z"/><path class="cls-2" d="M9.59,235.84c.07,1.12,0,2.14-1.64,2.29a1.5,1.5,0,0,1-1.86-1.26c-.24-1.21-.07-2.24,1.58-2.4C8.77,234.37,9.24,234.85,9.59,235.84Z"/></g></g></g></svg>
